<?xml version="1.0" encoding="UTF-8" standalone="no"?>
<!-- Created with Inkscape (http://www.inkscape.org/) -->

<svg
   xmlns:dc="http://purl.org/dc/elements/1.1/"
   xmlns:cc="http://creativecommons.org/ns#"
   xmlns:rdf="http://www.w3.org/1999/02/22-rdf-syntax-ns#"
   xmlns:svg="http://www.w3.org/2000/svg"
   xmlns="http://www.w3.org/2000/svg"
   xmlns:sodipodi="http://sodipodi.sourceforge.net/DTD/sodipodi-0.dtd"
   xmlns:inkscape="http://www.inkscape.org/namespaces/inkscape"
   width="744.09448819"
   height="1052.3622047"
   id="svg2"
   version="1.1"
   inkscape:version="0.48.4 r9939"
   sodipodi:docname="New document 1">
  <defs
     id="defs4" />
  <sodipodi:namedview
     id="base"
     pagecolor="#ffffff"
     bordercolor="#666666"
     borderopacity="1.0"
     inkscape:pageopacity="0.0"
     inkscape:pageshadow="2"
     inkscape:zoom="0.49497475"
     inkscape:cx="-93.643179"
     inkscape:cy="629.74634"
     inkscape:document-units="px"
     inkscape:current-layer="layer1"
     showgrid="false"
     inkscape:object-nodes="true"
     inkscape:window-width="1918"
     inkscape:window-height="1059"
     inkscape:window-x="1360"
     inkscape:window-y="19"
     inkscape:window-maximized="1">
    <inkscape:grid
       type="xygrid"
       id="grid3005" />
  </sodipodi:namedview>
  <metadata
     id="metadata7">
    <rdf:RDF>
      <cc:Work
         rdf:about="">
        <dc:format>image/svg+xml</dc:format>
        <dc:type
           rdf:resource="http://purl.org/dc/dcmitype/StillImage" />
        <dc:title></dc:title>
      </cc:Work>
    </rdf:RDF>
  </metadata>
  <g
     inkscape:label="Layer 1"
     inkscape:groupmode="layer"
     id="layer1">
    <path
       style="fill:#ffffff"
       id="path3015"
       d="m 224.0592,160.18169 c -6.25927,0.99495 -12.38526,2.5377 -18.49322,4.20067 -4.85016,1.15177 -9.47614,2.86119 -14.04418,4.82246 -0.94737,0.46551 -1.90831,0.90437 -2.84211,1.39654 -1.05895,0.55812 -4.1786,2.33775 -3.13401,1.7532 5.3464,-2.99183 10.5032,-6.35113 16.03945,-8.97505 1.5935,-0.75524 -2.8061,2.14288 -4.11572,3.32378 -4.13916,3.7323 -5.1186,5.24823 -8.80562,9.66404 -7.39828,9.63669 -12.9206,20.43329 -16.29417,32.11016 -2.60975,9.03308 -2.69211,11.716 -4.10236,21.0769 -0.20162,3.7608 -0.60582,7.51619 -0.60486,11.28238 0.004,14.7015 2.98558,29.6205 8.61964,43.19791 1.35098,3.25568 3.03349,6.36366 4.55023,9.5455 1.80856,2.95799 3.45103,6.02416 5.42567,8.87397 5.40745,7.80406 12.09833,14.94289 20.06722,20.17235 6.22511,4.08512 8.37309,4.46884 15.25559,7.07019 2.73335,0.61407 5.42842,1.43429 8.20003,1.84223 8.50168,1.25132 17.62707,0.73871 25.89199,-1.65233 8.19761,-2.37158 9.80582,-3.91351 17.16242,-8.18343 -3.37535,1.47557 -7.78983,7.27493 -10.12607,4.42671 -2.25534,-2.74961 5.27367,-4.78471 7.69923,-7.3854 2.60763,-2.79588 5.07046,-5.73321 7.37862,-8.78101 5.57415,-7.36038 9.60303,-14.15003 13.92486,-22.33743 2.23379,-4.23176 4.21809,-8.59058 6.32713,-12.88588 6.64753,-15.9926 12.92016,-32.36137 15.92611,-49.49482 1.5757,-8.98122 1.34395,-10.6207 1.63539,-19.36161 -0.41706,-8.19123 -0.87328,-17.22727 -6.63672,-23.69799 -3.68642,-4.13882 -5.53936,-4.58567 -10.4524,-7.31432 -2.44383,-0.88118 -4.83788,-1.91509 -7.33151,-2.64353 -5.65848,-1.65294 -11.95962,-2.66971 -17.78543,-3.38914 -7.07746,-0.874 -12.10899,-1.19941 -19.23599,-1.22029 -3.13003,-0.009 -6.25816,0.15514 -9.38724,0.2327 -13.59112,0.88496 -26.98151,4.19765 -39.19747,10.28772 -1.9481,0.97119 -3.80604,2.11359 -5.70906,3.17038 4.81849,-2.72843 9.63698,-5.45685 14.45546,-8.18527 0,0 -21.06966,8.13214 -21.06966,8.13214 l 0,0 c 8.00127,-4.64448 16.00254,-9.28897 24.00381,-13.93346 1.89064,-0.96881 3.74246,-2.01747 5.67193,-2.90643 12.30637,-5.66987 25.64169,-8.58419 39.15101,-9.18484 3.13122,-0.0317 6.26272,-0.14742 9.39366,-0.0951 6.83697,0.1142 12.62756,0.53739 19.41661,1.39087 5.80352,0.72957 12.74577,1.84149 18.39548,3.48285 2.63359,0.76512 5.15878,1.86325 7.73817,2.79487 5.22255,2.8888 7.4859,3.50587 11.39158,7.96728 6.14304,7.0171 6.27775,16.66767 6.36499,25.45656 -0.54124,8.63695 -0.44558,11.22676 -2.13875,20.02097 -3.32548,17.27238 -9.93105,33.99953 -16.46617,50.25391 -2.03142,4.30058 -3.95849,8.65203 -6.09428,12.90175 -5.61063,11.16385 -11.92555,21.89979 -20.22919,31.3025 -11.15631,12.63294 -14.96345,12.39053 -33.60144,24.38665 -7.67906,4.11289 -9.25847,5.54922 -17.7357,7.75342 -8.56793,2.22779 -17.85055,2.52739 -26.56657,1.02507 -2.83738,-0.48906 -5.58741,-1.39298 -8.38112,-2.08946 -7.17767,-2.91966 -9.02848,-3.20304 -15.44082,-7.70379 -10.96848,-7.69865 -19.12017,-18.54794 -25.58267,-30.13418 -1.53789,-3.25274 -3.24825,-6.42939 -4.61366,-9.75821 -5.64362,-13.75901 -8.6705,-29.12419 -8.85665,-43.98292 -0.0477,-3.80579 0.27924,-7.60704 0.41885,-11.41057 1.23748,-9.45923 1.27716,-12.11578 3.66802,-21.27544 3.05009,-11.6852 8.14426,-22.58947 15.12967,-32.44024 3.57032,-4.70693 4.141,-5.80763 8.15147,-9.84807 1.20835,-1.21738 2.3485,-2.55218 3.79247,-3.47796 9.50555,-6.09434 19.34895,-12.29217 29.69554,-17.07766 4.55866,-1.8969 9.25351,-3.35386 14.076,-4.4325 6.37171,-1.64838 12.79324,-3.05708 19.21138,-4.51049 0,0 -19.15486,14.4502 -19.15486,14.4502 z"
       inkscape:connector-curvature="0"
       inkscape:export-filename="/home/protoskel/path3094.png"
       inkscape:export-xdpi="90"
       inkscape:export-ydpi="90" />
    <path
       style="fill:#ffffff"
       id="path3110"
       d="m 193.73519,276.61811 c 2.0567,0.0933 4.11711,0.0645 6.17543,0.0609 1.82001,-0.002 3.63996,-0.0172 5.45987,-0.0363 1.31361,-0.0699 2.65962,0.13583 3.95226,-0.13187 0.62541,-0.16282 1.08697,-0.59415 1.60911,-0.93761 0.17766,-0.11686 0.73683,-0.42496 0.55257,-0.31881 -14.095,8.11973 -18.60046,10.76051 -13.41598,7.72377 1.15282,-0.71946 2.14434,-1.65511 3.12378,-2.58828 1.0727,-1.07157 2.145,-2.13531 3.29863,-3.11988 1.20968,-0.91008 2.36681,-1.88679 3.602,-2.76213 0.12835,-0.0874 0.23702,-0.21537 0.38506,-0.26234 0.36618,-0.11618 0.30895,0.43389 -8.6e-4,0.5538 -0.51632,0.19984 -1.08893,0.20084 -1.63396,0.29812 -3.76675,0.7084 -7.40577,1.85965 -10.97374,3.24128 -1.44628,0.5447 -2.89018,1.11404 -4.24683,1.86064 -0.32601,0.17941 -1.27967,0.76009 -0.95674,0.57521 13.30219,-7.61569 18.02809,-10.59649 12.93498,-7.39686 -1.19408,0.91407 -2.22592,2.03832 -3.16731,3.20721 -0.88191,1.09045 -1.71688,2.21768 -2.53628,3.35565 0.10908,-0.69213 -0.197,0.36763 -0.17126,0.26551 0.13143,-0.52153 0.55747,-0.47854 0.98322,-0.73259 0.20327,-0.1213 0.37817,-0.28479 0.56726,-0.42718 -28.74276,13.74483 -16.61109,10.3992 -12.40259,6.83611 0.71879,-0.60856 1.35568,-1.31578 1.99968,-2.00025 1.13163,-1.23564 2.40139,-2.33282 3.6179,-3.48219 1.0512,-0.82444 2.04504,-1.7221 3.09578,-2.54564 0,0 15.74757,-6.27555 15.74757,-6.27555 l 0,0 c -1.08007,0.79814 -2.09718,1.65743 -3.1524,2.49058 -1.34963,0.98175 -2.47869,2.24038 -3.76101,3.30739 -6.07205,6.59146 -5.23896,5.27966 -18.45207,12.10651 -2.01397,0.27439 -3.38109,-0.25643 -3.50665,-2.51307 0.0723,-0.22943 0.11547,-0.47014 0.21684,-0.68828 0.45468,-0.97855 1.60097,-2.08466 2.1943,-3.01985 0.94268,-1.26563 1.9577,-2.46089 3.04415,-3.60876 5.5726,-5.26209 13.58574,-8.72225 20.93213,-11.46566 3.74256,-1.31346 7.56209,-2.47005 11.48595,-3.09693 0.706,-0.023 1.46663,-0.13616 2.15007,0.15257 0.86723,0.36637 1.69897,1.29718 1.60153,2.30987 -0.0211,0.21953 -0.18994,0.3981 -0.28491,0.59715 -1.08817,1.08387 -2.47644,1.83451 -3.6316,2.85035 -1.21538,0.859 -2.32329,1.83301 -3.33133,2.9298 -0.97426,0.97446 -1.94348,1.9578 -2.99478,2.8503 -5.04406,4.00438 -0.47987,0.42155 -15.55955,9.11074 -0.79337,0.45715 -1.66402,0.69218 -2.5802,0.70833 -1.34144,-0.006 -2.68293,-0.005 -4.02439,-0.011 -1.78663,-0.0193 -3.57332,-0.0339 -5.36006,-0.0362 -2.11425,-0.004 -4.23019,-0.0295 -6.34301,0.0609 0,0 13.75744,-9.99536 13.75744,-9.99536 z"
       inkscape:connector-curvature="0"
       inkscape:export-filename="/home/protoskel/path3094.png"
       inkscape:export-xdpi="90"
       inkscape:export-ydpi="90" />
    <path
       style="fill:#ffffff"
       id="path3112"
       d="m 195.80751,218.18337 c -1.3461,1.24985 -2.68632,2.52061 -4.17571,3.60023 -39.87732,22.96099 -1.50882,0.84616 -1.13397,0.63045 0.16644,-0.0958 -0.33019,0.19627 -0.49273,0.29855 -0.41101,0.25863 -0.7355,0.51664 -1.05803,0.8772 -0.49876,0.70086 -0.52245,1.45713 0.26248,1.90697 1.10617,0.552 2.34048,0.60054 3.55089,0.64625 1.27261,0.0287 2.54534,-0.003 3.818,-0.004 1.26962,-0.0134 2.53924,-0.009 3.80889,-0.0133 0.83467,-0.0708 1.69287,0.0915 2.52526,-6.6e-4 0.39918,-0.0442 0.78616,-0.16643 1.18277,-0.22973 1.00196,-0.32038 2.18951,0.0338 3.16138,-0.37621 0.16196,-0.0683 0.2907,-0.19773 0.43604,-0.2966 -4.78198,2.69294 -9.56397,5.38588 -14.34595,8.07882 0.19831,0.28536 0.49293,0.65665 0.5366,1.00844 0.008,0.0643 -0.12861,0.0236 -0.19335,0.0205 -0.46653,-0.0217 -0.49966,-0.0805 -0.9927,-0.25258 -0.20994,-0.33967 -0.69229,-0.27845 -0.95893,-0.52741 -0.14937,-0.13946 -0.52872,-0.38607 -0.35768,-0.49791 4.85274,-3.17328 9.85407,-6.11781 14.8844,-9.0013 0.15627,-0.0896 0.9643,0.368 1.25258,0.51528 1.26207,0.88877 2.77919,1.13036 4.20578,1.60487 1.1693,0.35492 2.39406,0.57858 3.50431,1.08736 0.33717,0.1686 0.77015,0.35495 1.06655,0.60661 0.22611,0.19199 1.00006,1.16378 0.73778,1.34841 -13.36501,9.40818 -9.06223,10.12734 -15.12196,8.96419 -0.65276,-0.0306 -0.31234,-0.0167 -1.02131,-0.0407 0,0 13.67951,-10.0698 13.67951,-10.0698 l 0,0 c 0.65547,-0.10792 0.354,-0.0307 0.90883,-0.21348 4.09401,-4.14015 3.66268,-3.6659 -13.96302,8.58309 -0.53418,0.37123 1.21827,0.96842 0.18509,0.49828 -0.1649,-0.075 -0.33599,-0.13567 -0.50398,-0.20351 -1.17256,-0.29306 -2.32172,-0.67282 -3.47651,-1.02813 -1.4677,-0.44087 -2.85201,-1.06654 -4.24852,-1.69082 -6.40194,-1.47037 -3.68166,2.08145 12.82395,-9.42253 0.12808,-0.0893 -0.29304,-0.20878 -0.29363,-0.3649 -0.001,-0.26403 0.76056,0.81962 0.72229,0.32509 1.14814,0.35174 1.87933,0.75037 2.4049,1.92406 0.0995,0.22219 0.33894,0.59052 0.13176,0.71837 -4.87943,3.0112 -9.98948,5.63159 -14.98422,8.44738 -1.25893,0.0851 -2.51301,0.20438 -3.76145,0.39265 -1.2748,0.12942 -2.56114,0.0244 -3.84137,0.0608 -1.26717,-2.9e-4 -2.53426,0.0121 -3.80143,0.0124 -1.30168,0.009 -2.60802,0.007 -3.90417,-0.12509 -1.48396,-0.20043 -2.92925,-0.54246 -4.13318,-1.49018 -0.20787,-0.20082 -0.4394,-0.37974 -0.62362,-0.60246 -0.7337,-0.88698 -0.99466,-2.20761 -0.76143,-3.30838 0.22529,-0.73606 0.53858,-1.5915 1.24895,-2.01138 4.98327,-2.94547 10.11477,-5.64372 15.01349,-8.72776 4.51617,-2.8432 -9.24337,5.3365 -13.86506,8.00475 1.65758,-0.74837 2.94633,-1.96475 4.28749,-3.16998 0,0 15.67394,-6.49236 15.67394,-6.49236 z"
       inkscape:connector-curvature="0"
       inkscape:export-filename="/home/protoskel/path3094.png"
       inkscape:export-xdpi="90"
       inkscape:export-ydpi="90" />
    <path
       style="fill:#ffffff"
       id="path3114"
       d="m 227.89164,174.68357 c 1.4373,1.88615 2.56747,3.95701 3.55986,6.10175 0.60651,1.4152 1.4159,2.72587 2.09884,4.10128 0.46614,1.26414 0.58545,2.22048 1.49843,3.26326 1.07314,0.87516 2.19884,1.68289 3.29617,2.52667 4.62464,5.28206 -10.23293,8.19966 -13.90679,10.24322 -0.25825,0.14365 -0.42044,-0.41766 -0.65486,-0.59759 -0.0682,-0.0524 -1.09992,-0.62815 -1.11956,-0.63919 -1.83766,-1.40579 -3.82442,-2.59306 -5.72899,-3.90528 -1.82036,-1.27722 -3.65996,-2.53818 -5.37537,-3.95583 -1.30742,-1.03103 -2.67008,-1.97854 -4.15904,-2.7271 -1.10841,-0.40984 -2.06814,-1.07065 -3.22293,-1.35621 -0.0999,0.0115 -0.26776,-0.0609 -0.29971,0.0344 -0.0515,0.15359 -0.006,0.55337 0.13137,0.46786 10.91672,-6.78511 9.5701,-12.04141 15.65726,-8.81402 1.49184,0.79346 2.80943,1.83292 4.10117,2.9113 1.26057,1.22773 2.65169,2.28428 4.10483,3.27163 1.32205,0.96036 2.66307,1.88617 4.12107,2.62878 1.60331,0.77488 3.1418,1.67673 4.7608,2.42616 1.51956,0.54937 2.82807,1.50292 4.28937,2.1714 1.29482,0.60545 2.38937,1.5238 3.44458,2.47047 1.11235,0.96121 1.86234,2.24252 2.74811,3.39987 0.81908,1.07253 1.67846,2.07475 2.91285,2.65762 0.69185,0.3143 1.33825,0.71059 1.98278,1.10961 0.5328,0.32985 0.75063,0.46771 0.74544,0.42579 -0.026,-0.21016 -0.2066,-0.3697 -0.30991,-0.55455 -11.59502,8.53915 -11.85549,13.79058 -16.65796,6.76507 -0.90194,-1.28387 -1.87655,-2.51578 -2.77482,-3.80232 -0.70023,-1.42821 -1.61129,-2.73238 -2.39365,-4.11291 -0.69627,-1.29276 -1.63701,-2.41533 -2.59847,-3.51445 -1.12911,-1.28111 -2.28017,-2.55059 -3.35594,-3.8777 -1.01645,-1.12575 -1.69967,-2.47589 -2.46087,-3.77365 -0.72792,-1.21947 -1.3792,-2.47294 -1.96991,-3.76301 -0.57098,-1.48568 -1.27447,-2.89818 -2.23225,-4.1719 -0.59197,-0.67439 -1.72927,-2.15614 -2.84672,-1.60446 -0.16278,0.0804 -0.2588,0.25467 -0.3882,0.382 -3.66776,4.7635 -0.38176,0.37293 13.67704,-7.67338 0.16367,-0.0937 -0.29939,0.23029 -0.43746,0.35874 -0.47826,0.44493 -0.70467,0.92272 -0.96045,1.51335 -0.4606,1.13284 -1.16075,1.98275 -0.5965,3.19574 0.81431,1.11425 2.04221,1.66596 3.25961,2.2171 0.80668,0.34497 1.69329,0.46122 2.51849,0.73512 1.2951,0.42987 2.56768,1.01074 3.84763,1.48802 3.09153,1.44959 6.28811,2.65753 9.3814,4.10185 0,0 -13.91521,9.18959 -13.91521,9.18959 l 0,0 c -3.01555,-1.4831 -6.12993,-2.76122 -9.26094,-3.97847 -2.21754,-0.76733 -4.49135,-1.36243 -6.67189,-2.22292 -1.52795,-0.76669 -2.92885,-1.71548 -3.88774,-3.16879 -0.82178,-1.65911 -1.00101,-2.7969 -0.0625,-4.4632 0.25919,-0.6549 0.40733,-1.37581 0.72025,-2.00665 0.0961,-0.19385 0.16632,-0.4325 0.35019,-0.54659 14.40681,-8.93995 9.18241,-8.17365 15.55961,-8.99915 1.8807,0.36894 3.07426,1.36844 4.20702,2.8908 1.00351,1.36731 1.88317,2.83673 2.48163,4.42939 0.57421,1.23359 1.17751,2.44921 1.85622,3.63008 0.73015,1.22469 1.41015,2.48241 2.34452,3.56936 1.03393,1.32051 2.15719,2.57329 3.295,3.80456 1.06334,1.1687 2.02537,2.42338 2.79185,3.80995 0.77245,1.33401 1.59938,2.63462 2.34469,3.98456 0.87145,1.30175 1.81682,2.5534 2.76245,3.80171 4.65794,6.67625 7.97761,-2.18292 -11.65074,12.12102 -0.11809,-0.18248 -0.22454,-0.37305 -0.35428,-0.54745 -0.58157,-0.78168 -1.79057,-0.94887 -2.52527,-1.52806 -1.30346,-0.86006 -2.34566,-1.96834 -3.27114,-3.22539 -0.81251,-1.07126 -1.5334,-2.23685 -2.58314,-3.09877 -0.98573,-0.83347 -2.02879,-1.58142 -3.20633,-2.12569 -1.39414,-0.77521 -2.78517,-1.5395 -4.24967,-2.1784 -1.60181,-0.84693 -3.20287,-1.69475 -4.83764,-2.47669 -1.4294,-0.86915 -2.80507,-1.81477 -4.16019,-2.79537 -1.47044,-1.03647 -2.85291,-2.17265 -4.18013,-3.38737 -1.2317,-0.99386 -2.53586,-1.87876 -3.97175,-2.55631 -0.10425,-0.0505 -1.84162,-0.87149 -1.67591,-1.00321 29.37027,-23.34481 8.28687,-12.48914 14.41187,-9.51801 1.14233,0.48461 2.23137,1.08958 3.34006,1.64457 1.48218,0.90527 2.90132,1.90082 4.2236,3.03007 1.70841,1.3551 3.46821,2.64162 5.26354,3.87944 1.85457,1.29735 3.78213,2.5024 5.74816,3.61834 0.0953,0.0434 1.03448,0.48635 1.12272,0.47363 0.10036,-0.0145 0.21297,-0.32993 0.12677,-0.27653 -4.77513,2.95764 -9.56818,5.89139 -14.23603,9.0156 -0.12108,0.081 0.1932,0.22477 0.31815,0.29972 0.0702,0.0421 -0.0979,-0.13129 -0.1468,-0.19693 -1.15414,-0.93771 -2.41963,-1.74958 -3.44886,-2.83343 -0.89825,-1.09213 -1.46448,-2.24018 -1.75567,-3.62308 -0.62984,-1.41735 -1.44014,-2.75087 -1.98789,-4.20818 -0.86253,-2.02481 -1.8203,-4.03648 -3.42622,-5.59233 0,0 14.51094,-8.75998 14.51094,-8.75998 z"
       inkscape:connector-curvature="0"
       inkscape:export-filename="/home/protoskel/path3094.png"
       inkscape:export-xdpi="90"
       inkscape:export-ydpi="90" />
    <path
       style="fill:#ffffff"
       id="path3128"
       d="m 603.28842,428.50284 c -3.90849,-5.99217 -8.70383,-11.3349 -13.54913,-16.57376 -4.76545,-4.79692 -9.54969,-9.42032 -12.50467,-15.57082 -2.46762,-5.70378 -3.17157,-11.59869 -2.23866,-17.69912 1.34462,-5.96017 5.61344,-10.08253 10.56779,-13.28071 4.18671,-1.73759 8.43917,-3.35404 12.68055,-5.00727 4.09691,-1.44584 8.31109,-2.43254 12.47219,-3.63782 4.38818,-1.26412 8.84292,-1.36372 12.88862,-3.57331 5.26953,-3.09238 9.75881,-7.26048 14.18284,-11.42575 3.56767,-3.1209 5.824,-6.7406 6.72479,-11.35739 0.69765,-4.73111 0.75186,-7.76264 -3.13733,-10.93823 -4.80897,-3.29742 -10.45567,-4.42333 -16.13746,-5.11664 -5.35038,-0.36751 -10.71596,-0.2673 -16.07416,-0.21933 114.61027,-0.061 76.892,-0.0724 51.90287,0.0652 -5.76737,0.004 -11.53474,0.009 -17.3021,0.0188 -27.51966,0.0143 -55.0395,0.0449 -82.55913,0.006 -5.09312,-0.19928 -10.26315,0.52954 -15.26389,-0.56104 -3.02116,-0.12653 -5.19019,-2.08134 -7.6728,-3.52686 -3.2952,-1.91866 -4.48181,-2.3455 -7.14298,-5.25719 -4.36822,-5.60675 -4.71656,-10.49219 -2.33426,-17.0171 2.50146,-5.2972 6.53525,-9.3818 11.27933,-12.68973 5.32321,-3.17986 10.91328,-5.74552 16.61074,-8.15365 4.43214,-1.70182 8.64494,-3.88837 13.34324,-4.75785 4.08069,-1.16318 8.09879,-2.65553 12.11274,-4.07194 3.89756,-1.64114 8.083,-2.08607 12.13832,-3.15186 4.37625,-1.21882 8.89685,-1.68735 13.42644,-1.69815 5.05629,-0.64593 10.07086,-1.52182 15.16662,-1.79183 4.31217,-0.0732 7.88445,-2.11195 11.54523,-4.11814 0,0 67.45062,6.92355 67.45062,6.92355 l 0,0 c -3.78627,2.54223 -7.64368,5.14888 -11.89815,6.82672 -4.94007,1.17038 -10.12343,0.69755 -15.08939,1.91026 -4.34085,1.09649 -8.83216,0.35886 -13.24812,1.11068 -2.09552,0.37971 -4.02373,1.15923 -6.07482,1.60681 -1.94911,0.42534 -4.08757,0.10841 -5.99269,0.8617 -2.71233,0.83849 -1.36448,0.34782 -4.04007,1.48152 -2.76625,0.86282 -5.72372,1.12364 -8.13034,2.97592 -4.418,1.54595 -9.40171,1.3351 -13.48128,4.03868 -5.70482,1.95198 -11.34519,4.04038 -16.51938,7.17538 -4.37093,1.78505 -8.08004,4.49608 -10.77894,8.43451 -2.38983,3.77037 -1.41096,5.38564 2.00125,8.19604 4.54829,2.56654 9.0339,4.86802 14.40708,4.726 5.04568,-0.15996 10.09518,-0.0464 15.14278,-0.0772 39.81757,-0.0528 -86.64152,0.007 -51.29268,0.005 5.72596,0.007 11.452,0.009 17.17791,-0.0165 27.35557,-0.0384 54.70746,-0.71478 82.06616,-0.054 5.42811,0.0865 10.89919,0.24436 16.196,1.56223 6.31347,1.82015 12.4218,4.4128 16.60907,9.71931 3.48605,5.56977 4.50961,10.21274 3.42955,16.72047 -0.91147,5.98691 -2.78893,11.31779 -7.2418,15.66505 -4.53475,4.3873 -9.0046,8.88136 -13.99903,12.75157 -4.76233,3.51192 -6.84822,5.41337 -13.1022,5.73996 -0.73651,0.15959 -1.47302,0.31918 -2.20954,0.47877 -0.68156,0.26134 -1.3382,0.60044 -2.04469,0.78402 -2.7006,0.70175 -5.63928,0.62597 -8.12268,2.15035 -4.46446,0.85341 -8.1958,3.26872 -12.63739,4.02613 -4.01599,1.04904 -8.12584,3.02354 -10.20897,6.78676 -1.06896,4.48298 -0.0295,8.95591 2.02412,13.03664 3.43705,5.23087 8.17398,9.32657 12.22292,14.06657 4.8656,5.625 9.49664,11.43738 14.09831,17.27906 0,0 -67.83935,4.21314 -67.83935,4.21314 z"
       inkscape:connector-curvature="0"
       inkscape:export-filename="/home/protoskel/path3094.png"
       inkscape:export-xdpi="90"
       inkscape:export-ydpi="90" />
  </g>
  <path
     style="fill:#ffffff"
     id="path3028"
     d="m 219.05742,311.14186 c 2.82341,-3.39978 5.07206,-7.22239 7.50656,-10.89676 2.58569,-3.90258 3.52027,-5.17252 6.27385,-9.09127 8.08072,-11.3427 16.36981,-22.53627 24.4137,-33.90519 7.08176,-10.53457 14.24662,-21.02167 20.94197,-31.80846 2.45922,-3.73253 4.2131,-7.8661 6.48497,-11.70102 4.72362,-8.41208 -24.37765,8.41794 22.61831,-9.73336 0.2395,-0.0925 -0.43134,0.27907 -0.63879,0.43032 -0.28846,0.21032 -0.56547,0.4359 -0.8482,0.65385 -0.4174,0.29814 -0.8348,0.59629 -1.2522,0.89443 -6.4186,4.49216 -12.55802,9.35555 -18.6958,14.21838 -5.28891,4.41785 -10.82688,8.57662 -15.71148,13.45366 -0.79525,0.45113 -1.0397,1.37835 -1.65093,1.98372 -0.28416,0.28144 -0.4032,-0.82288 -0.22156,-1.1792 0.10576,-0.20746 2.3434,-1.33613 2.48752,-1.41191 8.16942,-5.2086 -1.77093,1.17304 -15.76625,8.88446 -0.93507,0.51522 1.77429,-1.18893 2.63673,-1.81822 2.96024,-2.15997 5.69951,-4.57358 8.44279,-6.99649 3.99555,-3.61511 7.80714,-7.42377 11.6064,-11.24211 2.05044,-2.13453 4.1426,-4.21955 6.34633,-6.19539 6.73203,-6.11566 3.37998,-3.1755 22.04045,-12.99766 0.43941,-0.23129 1.42868,1.05648 1.85612,1.91451 0.48676,0.97709 0.49566,1.82379 0.63061,2.88845 0.22798,5.17974 0.0153,10.36643 0.0459,15.54963 0.022,3.64696 0.16028,7.29211 0.20166,10.9386 0.005,0.36547 0.01,0.73094 0.0146,1.09641 0,0 -21.34002,10.86828 -21.34002,10.86828 l 0,0 c 0.006,-0.37162 0.0125,-0.74323 0.0187,-1.11485 0.0594,-3.72592 0.2275,-7.44974 0.26817,-11.17622 0.0473,-5.02289 0.0124,-10.05499 -0.33929,-15.06755 -0.0464,-0.39245 -0.0875,-0.78554 -0.13908,-1.17733 -0.0228,-0.17323 -0.12996,-0.34878 -0.0841,-0.51738 0.0303,-0.1113 0.13205,0.20194 0.13858,0.31711 0.009,0.15318 -0.22862,0.52589 -0.0951,0.45038 16.50941,-9.33472 26.35265,-16.01862 18.8907,-10.97407 -2.25768,1.97765 -4.51351,3.94673 -6.57267,6.13725 -3.96297,3.92055 -7.97784,7.7899 -12.07916,11.56579 -2.66904,2.44759 -5.33566,4.89117 -8.16986,7.14937 -0.81671,0.65073 -1.59538,1.36211 -2.48909,1.90226 -7.42458,4.4873 -14.93552,8.83076 -22.44798,13.16934 -0.72515,0.41878 -1.50591,0.73286 -2.25886,1.0993 -0.8898,0.26274 -2.54925,0.9865 -3.58407,0.48864 -2.93876,-1.41388 -1.84372,-3.66444 -0.2175,-5.42585 4.85757,-5.3737 11.05723,-9.34024 16.46772,-14.11249 5.8418,-4.66675 11.61512,-9.41801 17.60643,-13.89487 0.6345,-0.46872 1.2994,-0.89649 1.92084,-1.38238 0.17855,-0.13961 0.29005,-0.37471 0.49948,-0.46136 7.55185,-3.1245 15.163,-6.10372 22.7445,-9.15558 -0.60458,-0.019 -0.26737,-0.0856 -0.93595,0.43277 -2.99749,3.68235 -4.71977,8.24592 -7.53588,12.06627 -7.1614,10.75999 -14.44443,21.43612 -21.60172,32.19796 -7.90366,11.29746 -16.1385,22.36199 -23.98072,33.70331 -4.36449,6.34724 -8.51501,12.81395 -12.384,19.47458 0,0 -22.06341,9.50794 -22.06341,9.50794 z"
     inkscape:connector-curvature="0"
     inkscape:export-filename="/home/protoskel/path3094.png"
     inkscape:export-xdpi="90"
     inkscape:export-ydpi="90" />
  <path
     style="fill:#ffffff"
     id="path3060"
     d="m 203.40826,275.86985 c 2.61047,-1.04522 5.34015,-1.75145 8.03566,-2.54011 1.36945,-0.50397 2.6494,-1.2385 3.99068,-1.79851 1.30174,-0.54349 2.65167,-0.931 3.94822,-1.50162 1.66295,-0.94034 3.23628,-1.94945 5.06081,-2.54927 0,0 -18.85054,14.86586 -18.85054,14.86586 l 0,0 c -1.63681,0.84716 -3.21061,1.82649 -4.95554,2.44876 -2.69201,1.02211 -5.3059,2.24823 -8.06535,3.08425 -2.75125,0.80515 -5.46659,1.72171 -8.14671,2.73828 0,0 18.98277,-14.74764 18.98277,-14.74764 z"
     inkscape:connector-curvature="0"
     inkscape:export-filename="/home/protoskel/path3094.png"
     inkscape:export-xdpi="90"
     inkscape:export-ydpi="90" />
  <path
     style="fill:#ffffff"
     id="path3062"
     d="m 194.68809,217.16142 c 3.53415,1.74841 7.20285,3.11116 10.93127,4.37092 2.35284,0.82878 4.78233,1.25888 7.26511,1.36676 1.75772,0.0339 3.51601,0.007 5.27376,-0.0136 1.78636,-0.007 3.57264,-0.0106 5.359,-0.0118 0.96709,-0.0792 1.90969,0.17857 2.85791,0.32723 0,0 -19.58645,13.86252 -19.58645,13.86252 l 0,0 c -0.89904,-0.0817 -1.78822,-0.10074 -2.6914,-0.0749 -1.79014,0.005 -3.58033,0.0142 -5.37043,0.029 -1.79324,-0.003 -3.59275,0.0137 -5.37638,-0.20047 -2.53596,-0.35441 -4.97788,-1.08771 -7.36712,-2.00653 -3.77107,-1.37163 -7.43148,-3.01796 -11.23825,-4.28851 0,0 19.94298,-13.36067 19.94298,-13.36067 z"
     inkscape:connector-curvature="0"
     inkscape:export-filename="/home/protoskel/path3094.png"
     inkscape:export-xdpi="90"
     inkscape:export-ydpi="90" />
  <path
     style="fill:#ffffff"
     id="path3078"
     d="m 352.17327,410.41585 c -3.04842,0.9687 -6.01132,2.29685 -8.74308,3.9616 35.18323,-18.19894 22.8207,-13.96138 16.29484,-9.14853 -1.29267,0.95335 -2.46329,2.05709 -3.63345,3.15254 -2.65854,2.45737 -4.69413,5.44916 -6.57815,8.51374 -2.12901,3.29156 -3.42672,6.98391 -4.71358,10.65767 -1.04301,3.20045 -2.05594,6.4164 -2.91365,9.6721 -0.75581,3.01914 -0.88989,6.13571 -0.97848,9.2319 -0.10161,3.57668 -0.15156,7.15162 0.34113,10.70138 0.6863,3.59498 1.98347,6.97694 3.82791,10.12543 1.63334,2.54481 3.74337,4.72471 5.71299,7.00436 1.70702,2.15512 3.78863,3.93894 5.90453,5.67359 2.33844,1.50734 4.71528,2.92299 6.95677,4.58296 2.042,1.48088 4.13243,2.87329 6.45867,3.86359 3.10556,1.12313 6.22938,2.21533 9.38219,3.20451 2.55814,0.94862 5.29468,0.95894 7.93839,1.44331 2.6997,0.34988 5.39841,0.56873 8.04498,1.22974 3.9646,0.96465 8.04262,1.24908 12.10528,1.42622 3.32596,0.12441 6.65432,0.0747 9.98161,0.10135 5.64313,-0.30557 10.87828,-2.83232 15.94505,-5.12813 7.26433,-3.65687 22.7481,-11.97539 -9.72281,5.91958 -0.99504,0.54837 1.91214,-1.23007 2.82933,-1.90058 2.6107,-1.90856 3.05957,-2.47161 5.4528,-4.71693 5.0752,-5.15394 9.3317,-10.98934 12.48794,-17.50448 0.64876,-1.33919 1.19878,-2.72401 1.79817,-4.08602 2.68182,-6.39404 3.90567,-13.18064 4.71329,-20.02057 0.51041,-4.13123 0.71472,-8.28502 0.83224,-12.4428 0.22883,-4.73233 -0.56543,-9.39655 -1.89437,-13.91968 -1.07025,-3.31069 -2.93121,-6.26353 -4.57113,-9.30623 -3.33168,-5.8502 -8.25504,-9.87067 -13.22782,-14.2357 -5.27838,-5.18869 -11.4826,-9.12252 -17.8839,-12.74549 -4.00043,-2.25426 -8.40151,-3.40606 -12.90749,-4.07263 -2.48088,-0.22493 -4.99043,-0.54484 -7.48853,-0.4658 -0.40536,0.0128 -2.40261,0.236 -2.8396,0.28322 -2.78574,0.64103 -4.94414,2.11191 -7.376,3.48473 -7.13989,3.91397 -17.55891,9.91051 15.34053,-8.91285 0.62222,-0.356 -1.22649,0.74253 -1.83624,1.11949 -2.33403,1.46379 -1.17141,0.74085 -3.48766,2.16913 -3.1464,1.93155 -6.10524,4.13474 -9.01484,6.40062 -4.37251,3.40824 -9.00625,6.46452 -13.49443,9.71971 -3.33939,2.53887 -6.86497,4.99571 -9.46768,8.32828 -0.9745,1.59116 -0.54098,0.76467 -1.29884,2.48036 0,0 -21.57055,10.10571 -21.57055,10.10571 l 0,0 c 0.55751,-2.10861 0.2045,-1.08788 1.05274,-3.06436 0.58499,-0.98088 1.13668,-2.01119 1.91118,-2.86548 0.4373,-0.48234 0.95414,-0.88622 1.44,-1.3196 2.00856,-1.79156 4.08394,-3.51075 6.26809,-5.0856 2.52384,-1.84148 5.03228,-3.71068 7.57979,-5.51922 1.31611,-0.93433 2.70376,-1.76564 4.01302,-2.70954 0.54133,-0.39027 1.04617,-0.82883 1.56925,-1.24324 2.8779,-2.36216 5.81543,-4.65223 8.95202,-6.66575 9.9364,-6.34828 20.23504,-12.11375 30.52781,-17.87102 2.5233,-1.41325 5.16023,-2.56377 8.09439,-2.71499 3.49831,-0.12891 6.99987,0.21524 10.44804,0.80071 4.66482,0.89863 9.19467,2.28612 13.21081,4.91085 6.29831,3.94456 12.43262,8.15943 17.88907,13.23796 5.13002,4.44553 10.34896,8.875 14.10157,14.61332 1.91854,3.11573 3.75738,6.31752 4.79446,9.85105 1.29178,4.72826 2.34871,9.60894 2.2058,14.53599 -0.0217,4.25474 -0.0612,8.52802 -0.80129,12.73217 -0.27576,1.86209 -0.49952,3.73227 -0.81358,5.58829 -0.88117,5.2075 -2.38129,10.28242 -4.16197,15.24831 -1.73427,4.23501 -3.58112,8.45716 -5.99286,12.3653 -2.2093,3.58009 -5.03648,6.72328 -7.7129,9.94679 -2.23492,2.34258 -2.74079,3.02741 -5.22858,5.0423 -9.79911,7.93636 -21.48645,13.29825 -32.7781,18.81103 -5.45639,2.35792 -11.06212,4.87362 -17.12805,4.79754 -3.32268,0.0164 -6.64589,-0.0602 -9.96186,-0.28383 -4.15626,-0.30974 -8.30457,-0.71985 -12.37954,-1.63491 -2.7077,-0.40291 -5.43848,-0.59818 -8.14034,-1.0433 -2.71394,-0.35565 -5.37937,-0.9565 -7.96038,-1.88296 -3.24298,-1.08475 -6.5535,-1.99529 -9.69652,-3.3529 -2.36478,-1.20661 -4.57292,-2.66613 -6.69221,-4.26535 -2.28129,-1.65851 -4.78857,-2.96348 -6.99945,-4.7157 -2.21517,-1.83865 -4.35495,-3.75124 -6.15404,-6.01439 -2.01804,-2.41321 -4.17505,-4.73751 -5.80824,-7.44148 -1.9605,-3.40462 -3.39943,-7.05527 -4.23232,-10.90365 -0.63723,-3.64926 -0.67635,-7.34452 -0.60532,-11.04272 0.0531,-3.23881 0.0965,-6.5026 0.73121,-9.69118 0.77119,-3.34928 1.87591,-6.62106 2.92959,-9.88792 1.20291,-3.81996 2.51683,-7.66131 4.53576,-11.13673 1.82171,-3.17632 3.6854,-6.35249 6.19876,-9.04673 1.54988,-1.52768 3.08333,-3.16724 4.81472,-4.49417 7.06228,-5.41246 20.2394,-2.30629 23.03216,-13.49275 2.98513,-1.47511 6.05748,-2.75368 9.22372,-3.79018 0,0 -18.98277,14.74764 -18.98277,14.74764 z"
     inkscape:connector-curvature="0"
     inkscape:export-filename="/home/protoskel/path3094.png"
     inkscape:export-xdpi="90"
     inkscape:export-ydpi="90" />
  <path
     style="fill:#ffffff"
     id="path3080"
     d="m 398.85107,336.75801 c -0.37909,5.67385 -0.37531,11.36614 -0.30505,17.04955 0.0786,3.76465 0.18856,7.52883 0.23967,11.29401 -0.09,2.12166 0.15679,4.16789 0.69377,6.21377 0.79201,2.39372 1.45715,4.81643 1.89289,7.3004 0.0563,0.29266 0.11251,0.58532 0.16877,0.87798 0,0 -21.15893,11.31305 -21.15893,11.31305 l 0,0 c -0.069,-0.33317 -0.13807,-0.66634 -0.2071,-0.99951 -0.27874,-2.41718 -0.819,-4.78116 -1.68469,-7.06085 -0.24744,-0.82268 -0.56192,-1.62678 -0.75932,-2.46289 -0.33543,-1.42083 -0.24124,-2.8984 -0.22096,-4.3415 0.0515,-3.84658 0.16127,-7.69218 0.23967,-11.53825 0.0681,-5.57954 0.0854,-11.16938 -0.30505,-16.73869 0,0 21.40633,-10.90707 21.40633,-10.90707 z"
     inkscape:connector-curvature="0"
     inkscape:export-filename="/home/protoskel/path3094.png"
     inkscape:export-xdpi="90"
     inkscape:export-ydpi="90" />
  <path
     style="fill:#ffffff"
     id="path3082"
     d="m 358.0866,355.52184 c -2.09173,-0.90608 -4.35746,-1.8142 -5.5221,-3.87952 -2.42261,-9.1788 -0.8935,-1.67613 20.6856,-13.87422 0.28843,-0.16304 0.65708,0.0912 0.98787,0.10982 0.37748,0.0213 0.75663,0.0294 1.13419,0.01 0.92951,-0.0486 1.85228,-0.18599 2.77935,-0.26895 2.88835,-0.91795 5.76595,-1.74348 8.75683,-2.26029 2.18078,-0.30929 4.38096,-0.35467 6.57898,-0.36535 2.23918,0.18282 4.4299,-0.16963 6.65006,-0.37439 2.49505,-0.19895 4.99674,-0.25134 7.49815,-0.28445 2.08178,-0.33702 4.17803,-0.59303 6.28545,-0.68353 1.83171,-0.0832 3.66525,-0.0689 5.49822,-0.0733 1.91763,-0.006 3.83517,0.0203 5.75279,0.0219 1.92818,-0.008 3.85633,-0.006 5.78451,-0.0144 1.83386,0.0571 3.67746,-0.14872 5.48811,0.17924 2.25022,1.42127 2.39853,3.2433 1.24783,5.4473 -1.19672,1.80247 -2.95033,3.13817 -4.53219,4.58715 -6.88906,5.73804 -13.58063,8.27872 -22.7611,13.52971 -0.77728,0.44458 -1.78897,0.61595 -2.64937,0.81237 -2.07118,0.31288 -4.18606,0.26123 -6.27734,0.27171 -2.33047,0.0149 -4.66088,-0.0175 -6.99131,-0.0212 -2.39493,-0.0224 -4.79006,-0.002 -7.18502,0.009 -2.0223,0.0116 -4.04463,0.006 -6.06698,4e-5 -1.94417,0.008 -3.88827,0.0145 -5.83243,0.005 -2.05611,-0.014 -4.1121,0.006 -6.16823,-0.006 -2.07379,-0.0145 -4.14766,0.0195 -6.22134,-3.7e-4 -2.05031,-0.002 -4.10058,2.8e-4 -6.15086,0.0119 -1.83769,-7.8e-4 -3.67535,0.001 -5.51303,0.001 -1.61284,-0.22106 -3.07376,-1.02366 -4.46695,-1.82608 0,0 20.08759,-13.17204 20.08759,-13.17204 l 0,0 c 1.22683,0.55975 2.41712,1.04055 3.80096,0.8875 1.83663,1.4e-4 3.67324,0.002 5.50988,10e-4 2.03937,0.0117 4.07873,0.0143 6.11813,0.0119 2.07404,-0.0193 4.14824,0.0138 6.22237,-3.7e-4 2.0612,-0.0113 4.12226,0.008 6.18344,-0.006 1.93929,-0.009 3.87852,-0.003 5.8178,0.005 2.0224,-0.006 4.0448,-0.0119 6.06713,10e-4 2.38161,0.0129 4.76327,0.0382 7.14491,0.0257 2.32706,0.007 4.65434,0.002 6.98116,-0.035 1.99971,-0.0672 4.0388,-0.13285 5.92483,-0.87386 0.75308,-0.31715 0.85516,-0.34008 1.58543,-0.73042 0.2664,-0.14239 1.04844,-0.60054 0.78741,-0.44853 -35.09983,20.4409 -24.86493,15.08336 -18.19477,10.48096 1.68405,-1.18377 3.08088,-2.7249 4.75176,-3.93256 0.14475,-0.15234 0.77356,-0.82901 0.9778,-0.9931 0.2819,-0.22649 1.07234,-0.19978 0.25027,-0.1162 -1.78841,0.0128 -3.5767,0.002 -5.36512,0.008 -1.9139,-0.009 -3.82777,-0.008 -5.74166,-0.0186 -1.92944,-0.001 -3.85883,0.0175 -5.78827,0.019 -1.7967,0.0115 -3.59475,0.0457 -5.38685,0.18387 -2.09675,0.20123 -4.18941,0.50793 -6.2972,0.54163 -2.46598,0.0577 -4.93311,0.16705 -7.38637,0.43412 -2.27288,0.22983 -4.5429,0.26104 -6.8267,0.26828 -2.09163,0.0618 -4.18813,0.19947 -6.2404,0.63293 -2.96357,0.63853 -5.82263,1.72493 -8.84769,2.05337 -1.26598,0.13753 -2.75265,0.10138 -3.97656,0.49282 -0.26266,0.084 -0.96552,0.53277 -0.72999,0.38932 20.28635,-12.35566 25.44452,-6.51559 19.32384,-12.87837 -0.53188,0.20019 1.87026,1.36682 1.96584,1.41082 0.57302,0.2638 1.90018,0.76173 2.50459,0.99329 0,0 -20.01325,13.29866 -20.01325,13.29866 z"
     inkscape:connector-curvature="0"
     inkscape:export-filename="/home/protoskel/path3094.png"
     inkscape:export-xdpi="90"
     inkscape:export-ydpi="90" />
  <path
     style="fill:#ffffff"
     id="path3084"
     d="m 411.02928,442.97732 c 0.15291,2.15515 1.01559,4.14968 2.73605,5.48459 0.27157,0.18407 0.54378,0.36721 0.81472,0.55222 0.12304,0.084 1.61584,1.11076 1.51396,1.17185 -21.0582,12.62581 -15.17074,17.85388 -21.63841,11.72579 -1.33992,-1.32954 -2.69198,-2.62626 -4.1597,-3.81235 -0.73758,-0.44532 -1.43805,-0.94498 -2.13443,-1.4509 0,0 20.26419,-12.88726 20.26419,-12.88726 l 0,0 c 0.74763,0.52122 1.5089,1.02557 2.21238,1.60685 1.45755,1.23216 2.78793,2.60038 4.24043,3.83843 6.81612,5.44813 0.77738,0.32357 -19.52854,13.51717 -0.13608,0.0884 -0.2057,-0.25357 -0.32978,-0.35817 -0.22286,-0.18787 -0.45578,-0.36346 -0.68263,-0.54648 -0.31138,-0.25122 -0.62138,-0.50416 -0.93207,-0.75624 -1.88906,-1.9298 -3.15094,-4.26693 -3.68232,-6.9308 0,0 21.30615,-11.1547 21.30615,-11.1547 z"
     inkscape:connector-curvature="0"
     inkscape:export-filename="/home/protoskel/path3094.png"
     inkscape:export-xdpi="90"
     inkscape:export-ydpi="90" />
  <path
     style="fill:#ffffff"
     id="path3090"
     d="m 399.24378,450.8747 c 2.83814,-1.70759 5.6794,-3.42281 8.37968,-5.34365 2.07002,-1.28308 3.33522,-3.24801 4.65627,-5.21986 1.19409,-1.74788 2.49657,-3.432 4.03101,-4.89323 7.51402,-6.42535 16.27391,-11.78639 25.67003,-14.89234 2.01331,-0.60064 4.06362,-0.9343 6.15153,-1.11485 0.90464,-0.26816 1.89403,-0.48929 2.7608,-0.86865 0.20869,-0.0913 0.37543,-0.25811 0.56315,-0.38716 -6.80675,3.90972 -13.98912,7.22825 -20.42026,11.72917 -0.58269,0.40781 0.59377,1.29259 0.89065,1.93888 0.0535,0.29091 0.26267,0.59512 0.16056,0.87273 -0.0367,0.0997 -1.28225,0.63872 -1.49533,0.73536 -1.13426,0.51446 -2.22349,1.10281 -3.35075,1.63244 -3.16853,1.75401 0.99283,-0.5197 -2.05807,1.05547 -0.30763,0.15883 -1.2035,0.68515 -0.90338,0.51253 33.91537,-19.50706 24.37438,-14.39539 17.42023,-9.87663 -2.04066,1.24061 -3.9517,2.66599 -5.76972,4.21044 -1.52701,1.41039 -3.33262,2.46099 -4.95637,3.75388 -0.25267,0.18222 -0.50533,0.36444 -0.758,0.54666 0,0 -22.3183,8.82384 -22.3183,8.82384 l 0,0 c 0.25514,-0.18295 0.51028,-0.36589 0.76542,-0.54884 1.73154,-1.12156 3.21549,-2.61469 5.08688,-3.53672 1.78243,-1.66481 3.62993,-3.26646 5.68948,-4.5851 8.6121,-5.44655 17.28868,-10.87062 26.49761,-15.25007 0.83094,-0.40007 4.61746,-2.26354 5.41262,-2.03499 0.40518,0.11646 0.7017,0.4675 1.05255,0.70125 0.36489,0.69593 1.73345,1.63018 1.09466,2.08779 -7.62581,5.46294 -15.2564,11.73409 -24.58021,12.81385 -1.98508,0.32477 -3.95246,0.81855 -5.80645,1.61086 -0.57772,0.26724 -2.27566,1.13797 -1.72611,0.81677 6.26388,-3.66102 24.97631,-14.77424 18.81406,-10.94464 -0.58047,0.36074 -1.08967,0.82942 -1.69654,1.15123 -1.57704,1.3188 -3.07374,2.69186 -4.26615,4.39086 -1.46192,2.00645 -2.50699,4.37486 -4.46192,5.95271 -2.57645,2.05511 -5.39243,3.73923 -8.15542,5.52815 0,0 -22.37421,8.63186 -22.37421,8.63186 z"
     inkscape:connector-curvature="0"
     inkscape:export-filename="/home/protoskel/path3094.png"
     inkscape:export-xdpi="90"
     inkscape:export-ydpi="90" />
  <path
     style="fill:#ffffff"
     id="path3094"
     d="m 373.80089,459.09327 c -3.38034,-1.77672 -6.78432,-3.50992 -10.15336,-5.30887 -2.54527,-1.19799 -5.15816,-2.20196 -7.6901,-3.43502 -1.66266,-0.66324 -3.31736,-1.3512 -4.87918,-2.22837 0,0 20.14519,-13.08613 20.14519,-13.08613 l 0,0 c 1.45974,0.86673 3.03102,1.49793 4.58284,2.17954 2.5947,1.16211 5.31095,2.06925 7.73322,3.58776 3.32164,1.86591 6.67967,3.69894 10.27464,4.99243 0,0 -20.01325,13.29866 -20.01325,13.29866 z"
     inkscape:connector-curvature="0"
     inkscape:export-xdpi="90"
     inkscape:export-ydpi="90" />
</svg>
